<?xml version="1.0" standalone="no"?>
<!DOCTYPE svg PUBLIC "-//W3C//DTD SVG 20010904//EN"
 "http://www.w3.org/TR/2001/REC-SVG-20010904/DTD/svg10.dtd">
<svg version="1.0" xmlns="http://www.w3.org/2000/svg"
 width="1920.000000pt" height="1080.000000pt" viewBox="0 0 1920.000000 1080.000000"
 preserveAspectRatio="xMidYMid meet">

<g transform="translate(0.000000,1080.000000) scale(0.100000,-0.100000)"
fill="#000000" stroke="none">
<path d="M13920 10787 c0 -8 18 -20 40 -27 l40 -13 0 -54 c0 -46 3 -53 20 -53
28 0 60 -30 60 -57 0 -20 5 -23 39 -23 22 0 41 5 43 12 3 8 11 9 24 3 18 -8
18 -9 -3 -12 -25 -5 -32 -23 -8 -23 8 0 19 -8 24 -18 5 -10 22 -24 38 -32 34
-18 83 -64 83 -79 0 -6 5 -11 11 -11 6 0 24 -13 40 -29 16 -16 29 -34 29 -40
0 -6 9 -11 21 -11 22 0 48 -22 64 -54 7 -13 22 -22 42 -24 19 -2 47 -18 74
-43 23 -21 46 -39 51 -39 13 0 68 -56 68 -69 0 -6 9 -11 20 -11 28 0 60 -30
60 -57 0 -20 5 -23 39 -23 22 0 41 5 43 12 3 8 11 9 24 3 18 -8 18 -9 -3 -12
-25 -5 -32 -23 -8 -23 8 0 19 -8 24 -18 5 -10 22 -24 38 -32 34 -18 83 -64 83
-79 0 -6 9 -11 20 -11 28 0 60 -30 60 -57 0 -17 6 -23 21 -23 11 0 28 -7 36
-16 11 -11 18 -12 23 -4 5 8 20 -1 45 -24 21 -20 42 -36 47 -36 13 0 68 -56
68 -69 0 -6 5 -11 11 -11 14 0 69 -55 69 -69 0 -6 9 -11 21 -11 22 0 48 -22
64 -54 7 -13 22 -22 42 -24 19 -2 47 -18 74 -43 23 -21 46 -39 51 -39 13 0 68
-56 68 -69 0 -6 9 -11 20 -11 28 0 60 -30 60 -56 0 -24 16 -33 58 -35 27 -1
27 -1 -3 -9 -23 -6 -25 -8 -8 -9 29 -1 54 -12 48 -20 -2 -4 31 -13 73 -20 242
-39 530 -162 732 -315 71 -53 205 -162 250 -203 156 -141 385 -293 523 -347
241 -95 427 -97 882 -11 99 18 221 39 272 46 129 16 347 7 443 -20 41 -11 78
-21 83 -21 4 0 7 572 7 1270 l0 1270 -2640 0 c-2200 0 -2640 -2 -2640 -13z
m500 -377 c0 -5 -4 -10 -10 -10 -5 0 -10 5 -10 10 0 6 5 10 10 10 6 0 10 -4
10 -10z m185 -160 c4 -6 -5 -10 -19 -10 -14 0 -26 5 -26 10 0 6 9 10 19 10 11
0 23 -4 26 -10z m625 -481 c0 -5 -7 -9 -15 -9 -8 0 -15 7 -15 15 0 9 6 12 15
9 8 -4 15 -10 15 -15z m230 -159 c0 -5 -4 -10 -10 -10 -5 0 -10 5 -10 10 0 6
5 10 10 10 6 0 10 -4 10 -10z m180 -155 c11 -13 8 -15 -14 -15 -16 0 -26 5
-26 15 0 8 6 15 14 15 7 0 19 -7 26 -15z m315 -245 c3 -5 -3 -10 -14 -10 -12
0 -21 5 -21 10 0 6 6 10 14 10 8 0 18 -4 21 -10z m60 -40 c-11 -5 -27 -9 -35
-9 -9 0 -8 4 5 9 11 5 27 9 35 9 9 0 8 -4 -5 -9z"/>
<path d="M15658 9183 c7 -3 16 -2 19 1 4 3 -2 6 -13 5 -11 0 -14 -3 -6 -6z"/>
<path d="M15808 9163 c6 -2 18 -2 25 0 6 3 1 5 -13 5 -14 0 -19 -2 -12 -5z"/>
</g>
</svg>
